<svg xmlns="http://www.w3.org/2000/svg" xmlns:xlink="http://www.w3.org/1999/xlink" xmlns:lucid="lucid" width="300" height="300"><g transform="translate(0 0)" lucid:page-tab-id="0_0"><path d="M20 26c0-3.3 2.7-6 6-6h248c3.3 0 6 2.7 6 6v248c0 3.3-2.7 6-6 6H26c-3.3 0-6-2.7-6-6z" stroke="#0c7cba" stroke-width="3" fill="#0c7cba"/><use xlink:href="#a" transform="matrix(1,0,0,1,25,25) translate(21.666666666666913 159.8527777777775)"/><defs><path fill="#fff" d="M163-116c0-78-36-122-110-112v-56c35-1 55 6 86-22 64-88-23-208 73-291 58-51 122-38 196-40v57c-53 2-103-8-135 13-38 24-40 73-40 93 0 24 2 46 2 70 3 68-35 130-87 148 38 13 85 50 85 155 0 81-20 142 38 187 33 26 82 15 136 17v56c-78-2-144 12-192-30-80-70-52-144-52-245" id="b"/><path fill="#fff" d="M192 112c62 6 104-57 104-130v-380H126v-59h243v425c13 120-78 206-181 206-57 0-107-23-140-64l47-62c12 27 24 57 97 64zm141-768c29 0 52 23 52 51s-23 52-52 52-52-24-52-52 23-51 52-51" id="c"/><path fill="#fff" d="M352-256c-52-19-90-80-87-148 0-24 3-46 3-70 0-20-2-69-40-93-32-21-83-11-136-13v-57c74 2 140-14 196 40 65 62 49 118 47 206 0 24 2 61 26 85 30 29 52 21 87 22v56c-74-10-110 34-110 112 0 101 28 175-52 245-48 42-115 28-193 30v-56c54-2 104 9 137-17 58-45 38-106 38-187 0-105 46-142 84-155" id="d"/><g id="a"><use transform="matrix(0.13777777777777747,0,0,0.13777777777777747,0,0)" xlink:href="#b"/><use transform="matrix(0.13777777777777747,0,0,0.13777777777777747,68.88888888888873,0)" xlink:href="#c"/><use transform="matrix(0.13777777777777747,0,0,0.13777777777777747,137.77777777777746,0)" xlink:href="#d"/></g></defs></g></svg>